# Blender 4.2.2 LTS
# www.blender.org
mtllib N.mtl
o Object_250
v 0.089999 0.003750 -0.063317
v 0.089999 0.005000 -0.068567
v 0.089999 0.005000 -0.063317
v 0.089999 0.005000 -0.058067
v 0.089999 -0.000000 -0.058067
v 0.089999 0.001248 -0.073817
v 0.089999 -0.000000 -0.068567
v 0.089999 -0.000000 -0.073817
v 0.089999 0.001248 -0.063317
v 0.089999 0.002498 -0.068567
v 0.089999 0.003750 -0.073817
v 0.089999 0.005000 -0.079067
v 0.089999 0.005000 -0.073817
v 0.089999 -0.000000 -0.063317
v 0.089999 -0.000000 -0.079067
v 0.074999 0.005000 -0.063317
v 0.074999 0.003750 -0.063317
v 0.074999 0.005000 -0.058067
v 0.074999 -0.000000 -0.073817
v 0.074999 0.001248 -0.073817
v 0.074999 -0.000000 -0.079067
v 0.074999 0.005000 -0.073817
v 0.074999 0.003750 -0.073817
v 0.074999 0.005000 -0.068567
v 0.074999 -0.000000 -0.063317
v 0.074999 0.001248 -0.063317
v 0.074999 -0.000000 -0.068567
v 0.074999 -0.000000 -0.058067
v 0.074999 0.002498 -0.068567
v 0.074999 0.005000 -0.079067
v 0.087513 0.005000 -0.072177
v 0.087513 0.005000 -0.075455
v 0.083631 0.005000 -0.065289
v 0.086813 0.005000 -0.061677
v 0.085031 0.005000 -0.065289
v 0.079315 0.005000 -0.061677
v 0.082497 0.005000 -0.058065
v 0.085031 0.005000 -0.071845
v 0.086833 0.005000 -0.075455
v 0.077483 0.005000 -0.072177
v 0.079967 0.005000 -0.071845
v 0.077483 0.005000 -0.075455
v 0.078161 0.005000 -0.061677
v 0.077483 0.005000 -0.061677
v 0.078179 0.005000 -0.075455
v 0.087513 0.005000 -0.061677
v 0.083667 0.005000 -0.071845
v 0.085679 0.005000 -0.075455
v 0.081323 0.005000 -0.065289
v 0.079967 0.005000 -0.065289
v 0.081359 0.005000 -0.071845
v 0.082497 0.005000 -0.079067
v 0.081313 0.005000 -0.069327
v 0.081317 0.005000 -0.069159
v 0.084177 0.005000 -0.066933
v 0.083697 0.005000 -0.067321
v 0.083703 0.005000 -0.067231
v 0.083691 0.005000 -0.067501
v 0.083677 0.005000 -0.067773
v 0.083681 0.005000 -0.067681
v 0.083687 0.005000 -0.067591
v 0.081257 0.005000 -0.070227
v 0.081275 0.005000 -0.070119
v 0.081261 0.005000 -0.070329
v 0.083723 0.005000 -0.066923
v 0.083711 0.005000 -0.067031
v 0.083721 0.005000 -0.066823
v 0.083677 0.005000 -0.067803
v 0.080801 0.005000 -0.070217
v 0.081287 0.005000 -0.069909
v 0.081303 0.005000 -0.069539
v 0.081297 0.005000 -0.069727
v 0.081313 0.005000 -0.069345
v 0.083667 0.005000 -0.068281
v 0.083675 0.005000 -0.067867
v 0.083667 0.005000 -0.068205
v 0.083669 0.005000 -0.068123
v 0.083673 0.005000 -0.067961
v 0.083671 0.005000 -0.068043
v 0.081323 0.005000 -0.068981
v 0.081323 0.005000 -0.068819
v 0.087115 -0.000000 -0.061711
v 0.087475 -0.000000 -0.064315
v 0.087475 -0.000000 -0.075455
v 0.087475 -0.000000 -0.074817
v 0.084953 -0.000000 -0.071845
v 0.085259 -0.000000 -0.075455
v 0.082497 -0.000000 -0.058067
v 0.086441 -0.000000 -0.061677
v 0.078943 -0.000000 -0.061677
v 0.082497 -0.000000 -0.079067
v 0.080521 -0.000000 -0.071845
v 0.077759 -0.000000 -0.075455
v 0.084233 -0.000000 -0.065355
v 0.077759 -0.000000 -0.074977
v 0.084953 -0.000000 -0.070565
v 0.082885 -0.000000 -0.065289
v 0.080521 -0.000000 -0.070889
v 0.077759 -0.000000 -0.064477
v 0.081939 -0.000000 -0.070633
v 0.082497 0.002498 -0.058067
v 0.082497 0.002498 -0.079067
v 0.084953 0.001002 -0.070565
v 0.081939 0.001002 -0.070633
v 0.081313 0.003996 -0.069327
v 0.081313 0.003996 -0.069345
v 0.081313 0.004498 -0.069327
v 0.081317 0.003996 -0.069159
v 0.084233 0.001002 -0.065355
v 0.082885 0.001002 -0.065289
v 0.084953 0.001002 -0.071845
v 0.079967 0.003996 -0.071845
v 0.081359 0.003996 -0.071845
v 0.083667 0.003996 -0.071845
v 0.085031 0.003996 -0.071845
v 0.080521 0.001002 -0.071845
v 0.081323 0.003996 -0.068981
v 0.080521 0.001002 -0.070889
v 0.083675 0.003996 -0.067867
v 0.083673 0.003996 -0.067961
v 0.081323 0.003996 -0.068819
v 0.083671 0.003996 -0.068043
v 0.083631 0.003996 -0.065289
v 0.083669 0.003996 -0.068123
v 0.083667 0.003996 -0.068205
v 0.081303 0.003996 -0.069539
v 0.079967 0.003996 -0.065289
v 0.081323 0.003996 -0.065289
v 0.085031 0.003996 -0.065289
v 0.083721 0.003996 -0.066823
v 0.083723 0.003996 -0.066923
v 0.083677 0.003996 -0.067803
v 0.083677 0.004498 -0.067803
v 0.083667 0.003996 -0.068281
v 0.084177 0.003996 -0.066933
v 0.083703 0.003996 -0.067231
v 0.083697 0.003996 -0.067321
v 0.083711 0.003996 -0.067031
v 0.080801 0.003996 -0.070217
v 0.083691 0.003996 -0.067501
v 0.083687 0.003996 -0.067591
v 0.081257 0.003996 -0.070227
v 0.081261 0.003996 -0.070329
v 0.083681 0.003996 -0.067681
v 0.083677 0.003996 -0.067773
v 0.081275 0.003996 -0.070119
v 0.081287 0.003996 -0.069909
v 0.081297 0.003996 -0.069727
v 0.080521 -0.000000 -0.070889
v 0.074999 -0.000000 -0.058067
v 0.074999 -0.000000 -0.058067
v 0.074999 0.005000 -0.058067
v 0.074999 0.005000 -0.058067
v 0.081275 0.005000 -0.070119
v 0.080521 0.001002 -0.071845
v 0.080521 -0.000000 -0.071845
v 0.080521 -0.000000 -0.071845
v 0.083697 0.005000 -0.067321
v 0.085031 0.003996 -0.071845
v 0.085031 0.005000 -0.071845
v 0.085031 0.005000 -0.071845
v 0.083667 0.005000 -0.068205
v 0.082497 0.005000 -0.058065
v 0.081313 0.003996 -0.069327
v 0.081313 0.005000 -0.069327
v 0.081313 0.005000 -0.069327
v 0.081313 0.005000 -0.069327
v 0.074999 0.005000 -0.079067
v 0.074999 0.005000 -0.079067
v 0.074999 -0.000000 -0.079067
v 0.074999 -0.000000 -0.079067
v 0.083631 0.003996 -0.065289
v 0.083631 0.005000 -0.065289
v 0.083631 0.005000 -0.065289
v 0.081317 0.005000 -0.069159
v 0.083673 0.005000 -0.067961
v 0.089999 -0.000000 -0.073817
v 0.089999 0.005000 -0.073817
v 0.089999 -0.000000 -0.068567
v 0.089999 0.005000 -0.068567
v 0.074999 -0.000000 -0.073817
v 0.074999 0.005000 -0.073817
v 0.089999 0.005000 -0.058067
v 0.089999 0.005000 -0.058067
v 0.089999 -0.000000 -0.058067
v 0.089999 -0.000000 -0.058067
v 0.081287 0.005000 -0.069909
v 0.089999 0.005000 -0.063317
v 0.089999 -0.000000 -0.063317
v 0.083703 0.005000 -0.067231
v 0.089999 0.005000 -0.079067
v 0.089999 0.005000 -0.079067
v 0.089999 -0.000000 -0.079067
v 0.089999 -0.000000 -0.079067
v 0.074999 -0.000000 -0.063317
v 0.074999 0.005000 -0.063317
v 0.081323 0.003996 -0.065289
v 0.081323 0.005000 -0.065289
v 0.081323 0.005000 -0.065289
v 0.084233 0.001002 -0.065355
v 0.081939 0.001002 -0.070633
v 0.081939 -0.000000 -0.070633
v 0.081939 -0.000000 -0.070633
v 0.084233 -0.000000 -0.065355
v 0.084233 -0.000000 -0.065355
v 0.081359 0.003996 -0.071845
v 0.081359 0.005000 -0.071845
v 0.081359 0.005000 -0.071845
v 0.074999 -0.000000 -0.068567
v 0.074999 0.005000 -0.068567
v 0.083687 0.005000 -0.067591
v 0.082497 0.005000 -0.079067
v 0.082497 -0.000000 -0.079067
v 0.084177 0.003996 -0.066933
v 0.084177 0.005000 -0.066933
v 0.084177 0.005000 -0.066933
v 0.083691 0.005000 -0.067501
v 0.083677 0.005000 -0.067773
v 0.083681 0.005000 -0.067681
v 0.081257 0.003996 -0.070227
v 0.081257 0.005000 -0.070227
v 0.081257 0.005000 -0.070227
v 0.081261 0.003996 -0.070329
v 0.081261 0.005000 -0.070329
v 0.081261 0.005000 -0.070329
v 0.083723 0.003996 -0.066923
v 0.083723 0.005000 -0.066923
v 0.083723 0.005000 -0.066923
v 0.083711 0.005000 -0.067031
v 0.083721 0.003996 -0.066823
v 0.083721 0.005000 -0.066823
v 0.083721 0.005000 -0.066823
v 0.083677 0.003996 -0.067803
v 0.083677 0.005000 -0.067803
v 0.083677 0.005000 -0.067803
v 0.083677 0.005000 -0.067803
v 0.080801 0.003996 -0.070217
v 0.080801 0.005000 -0.070217
v 0.080801 0.005000 -0.070217
v 0.081303 0.005000 -0.069539
v 0.081297 0.005000 -0.069727
v 0.081313 0.005000 -0.069345
v 0.083667 0.005000 -0.068281
v 0.083675 0.005000 -0.067867
v 0.083669 0.005000 -0.068123
v 0.085031 0.003996 -0.065289
v 0.085031 0.005000 -0.065289
v 0.085031 0.005000 -0.065289
v 0.083671 0.005000 -0.068043
v 0.081323 0.005000 -0.068981
v 0.081323 0.005000 -0.068819
v 0.083667 0.003996 -0.071845
v 0.083667 0.005000 -0.071845
v 0.083667 0.005000 -0.071845
v 0.079967 0.003996 -0.065289
v 0.084953 0.001002 -0.071845
v 0.079967 0.005000 -0.065289
v 0.079967 0.005000 -0.065289
v 0.084953 -0.000000 -0.071845
v 0.084953 -0.000000 -0.071845
v 0.079967 0.003996 -0.071845
v 0.079967 0.005000 -0.071845
v 0.079967 0.005000 -0.071845
v 0.082497 -0.000000 -0.058067
v 0.084953 0.001002 -0.070565
v 0.084953 -0.000000 -0.070565
v 0.084953 -0.000000 -0.070565
v 0.082885 0.001002 -0.065289
v 0.082885 -0.000000 -0.065289
v 0.082885 -0.000000 -0.065289
vn 1.0000 -0.0000 -0.0000
vn -1.0000 -0.0000 -0.0000
vn -0.0000 1.0000 -0.0000
vn -0.0000 -1.0000 -0.0000
vn -0.0000 -0.0000 1.0000
vn -0.0001 -0.0002 1.0000
vn -0.0000 -0.0008 1.0000
vn 0.0001 -0.0002 1.0000
vn -0.0000 -0.0000 -1.0000
vn 0.0226 -0.0000 -0.9997
vn 0.9989 -0.0000 -0.0471
vn 0.8701 -0.0000 -0.4929
vn 0.8676 -0.0000 -0.4973
vn 0.8682 -0.0000 -0.4961
vn -0.9206 -0.0000 0.3905
vn -0.8844 -0.0000 0.4667
vn -0.9996 -0.0000 0.0272
vn -0.9995 -0.0000 0.0305
vn -0.0489 -0.0000 -0.9988
vn -0.9171 -0.0000 0.3986
vn -0.9997 -0.0000 0.0231
vn -0.9999 -0.0000 0.0119
vn 0.9320 -0.0000 -0.3624
vn 0.9539 -0.0000 -0.3002
vn 0.9996 -0.0000 -0.0271
vn 0.9998 -0.0000 -0.0224
vn 0.9997 -0.0000 -0.0238
vn 0.9997 -0.0000 -0.0228
vn 0.9213 -0.0000 -0.3889
vn 0.9997 -0.0000 -0.0247
vn 0.8673 -0.0000 -0.4978
vn 0.9997 -0.0000 -0.0243
vn 0.9999 -0.0000 -0.0166
vn 1.0000 -0.0000 -0.0085
vn 0.9991 -0.0000 -0.0420
vn 0.9998 -0.0000 0.0200
vn -0.8675 -0.0000 0.4975
vn -0.8680 -0.0000 0.4965
vn -0.8722 -0.0000 0.4892
vn -0.8691 -0.0000 0.4947
vn 0.0220 -0.0000 0.9998
vn -0.9990 -0.0000 0.0449
vn -0.9986 -0.0000 0.0526
vn -0.9988 -0.0000 0.0499
vn -0.9992 -0.0000 0.0399
vn -0.9990 -0.0000 0.0440
vn -0.9988 -0.0000 0.0480
vn 0.8809 -0.0000 -0.4734
vn 0.8670 -0.0000 -0.4983
vn 0.9997 -0.0000 -0.0250
vn -0.8668 -0.0000 0.4987
vn -0.9994 -0.0000 0.0355
vn -0.9992 -0.0000 0.0389
vn -0.9987 -0.0000 0.0518
vn -0.9982 -0.0000 0.0592
vn -0.9992 -0.0000 -0.0392
vn -0.9983 -0.0000 0.0586
vn -0.9987 -0.0000 0.0510
vn -0.9993 -0.0000 0.0373
vn -0.9997 -0.0000 0.0263
vn -0.0219 -0.0000 -0.9998
vn 0.9978 -0.0000 -0.0665
vn 0.9980 -0.0000 -0.0634
vn 0.9982 -0.0000 -0.0602
vn 0.9984 -0.0000 -0.0559
vn 0.9985 -0.0000 -0.0555
vn 0.9989 -0.0000 -0.0470
vn 0.9992 -0.0000 -0.0394
s 0
usemtl Metallic_1
f 1//1 2//1 3//1
f 3//1 4//1 1//1
f 5//1 1//1 4//1
f 6//1 7//1 8//1
f 9//1 10//1 1//1
f 11//1 12//1 13//1
f 9//1 5//1 14//1
f 12//1 6//1 15//1
s 1
f 14//1 7//1 9//1
s 0
f 2//1 1//1 10//1
f 7//1 6//1 10//1
f 1//1 5//1 9//1
f 10//1 11//1 2//1
f 10//1 9//1 7//1
f 8//1 15//1 6//1
f 6//1 12//1 11//1
f 11//1 10//1 6//1
f 13//1 2//1 11//1
f 16//2 17//2 18//2
f 19//2 20//2 21//2
f 22//2 23//2 24//2
s 1
f 25//2 26//2 27//2
s 0
f 26//2 25//2 28//2
f 17//2 26//2 18//2
f 27//2 29//2 20//2
f 17//2 16//2 24//2
f 23//2 20//2 29//2
f 23//2 22//2 30//2
f 20//2 19//2 27//2
f 24//2 29//2 17//2
f 29//2 27//2 26//2
f 20//2 23//2 21//2
f 26//2 17//2 29//2
f 30//2 21//2 23//2
f 29//2 24//2 23//2
f 28//2 18//2 26//2
f 31//3 191//3 32//3
f 33//3 34//3 35//3
s 1
f 33//3 36//3 37//3
s 0
f 38//3 32//3 39//3
f 40//3 41//3 42//3
f 152//3 43//3 44//3
f 45//3 168//3 42//3
f 42//3 41//3 45//3
f 188//3 46//3 183//3
f 47//3 39//3 48//3
f 34//3 183//3 46//3
s 1
f 188//3 35//3 46//3
s 0
f 178//3 31//3 180//3
f 43//3 49//3 50//3
f 48//3 51//3 47//3
f 182//3 40//3 168//3
f 152//3 44//3 196//3
f 42//3 168//3 40//3
f 49//3 43//3 36//3
f 50//3 44//3 43//3
f 191//3 39//3 32//3
f 35//3 31//3 38//3
f 52//3 168//3 45//3
f 52//3 45//3 51//3
f 51//3 45//3 41//3
f 46//3 35//3 34//3
f 37//3 183//3 34//3
f 33//3 53//3 54//3
f 37//3 34//3 33//3
f 191//3 31//3 178//3
f 36//3 33//3 49//3
f 41//3 40//3 50//3
f 50//3 196//3 44//3
f 196//3 50//3 210//3
f 32//3 38//3 31//3
s 1
f 35//3 180//3 31//3
s 0
f 152//3 36//3 43//3
f 210//3 40//3 182//3
f 152//3 37//3 36//3
f 191//3 48//3 39//3
f 51//3 48//3 52//3
f 210//3 50//3 40//3
f 191//3 52//3 48//3
f 180//3 35//3 188//3
f 39//3 47//3 38//3
f 55//3 56//3 57//3
f 55//3 58//3 56//3
f 55//3 59//3 60//3
f 55//3 61//3 58//3
f 55//3 60//3 61//3
f 62//3 63//3 64//3
f 65//3 66//3 67//3
f 55//3 68//3 59//3
f 69//3 63//3 62//3
f 69//3 70//3 63//3
f 69//3 71//3 72//3
f 69//3 72//3 70//3
f 69//3 73//3 71//3
f 69//3 165//3 73//3
f 55//3 57//3 66//3
f 55//3 66//3 65//3
f 47//3 51//3 74//3
f 51//3 234//3 75//3
f 51//3 76//3 74//3
f 51//3 77//3 76//3
f 51//3 75//3 78//3
f 51//3 79//3 77//3
f 51//3 78//3 79//3
f 33//3 80//3 81//3
f 33//3 54//3 80//3
f 49//3 33//3 81//3
f 82//4 83//4 185//4
f 84//4 85//4 86//4
f 193//4 84//4 87//4
f 88//4 89//4 185//4
s 1
f 150//4 90//4 88//4
s 0
f 91//4 92//4 93//4
f 82//4 89//4 94//4
f 181//4 170//4 95//4
f 93//4 95//4 170//4
f 95//4 93//4 92//4
f 94//4 96//4 83//4
f 193//4 177//4 85//4
s 1
f 88//4 97//4 89//4
s 0
f 92//4 98//4 95//4
f 96//4 85//4 177//4
f 195//4 209//4 99//4
f 193//4 87//4 91//4
f 85//4 84//4 193//4
f 96//4 94//4 100//4
f 179//4 189//4 83//4
f 89//4 82//4 185//4
f 150//4 195//4 99//4
f 189//4 185//4 83//4
f 181//4 95//4 98//4
f 177//4 179//4 96//4
f 209//4 181//4 98//4
f 86//4 87//4 84//4
f 97//4 90//4 99//4
f 150//4 99//4 90//4
f 96//4 86//4 85//4
f 98//4 99//4 209//4
f 97//4 88//4 90//4
f 87//4 86//4 92//4
f 92//4 91//4 87//4
f 83//4 82//4 94//4
f 99//4 98//4 97//4
f 91//4 93//4 170//4
f 179//4 83//4 96//4
s 1
f 97//4 94//4 89//4
f 151//5 101//5 153//6
f 163//7 153//6 101//5
f 184//8 163//7 101//5
f 151//5 264//5 101//5
f 264//5 186//5 101//5
f 184//8 101//5 186//5
s 0
f 171//9 102//9 213//9
f 171//9 169//9 102//9
f 212//9 102//9 169//9
f 192//9 194//9 102//9
f 213//9 102//9 194//9
f 192//9 102//9 212//9
f 103//10 202//10 104//10
f 202//10 103//10 266//10
s 1
f 242//11 105//12 106//11
f 166//13 107//14 242//11
f 167//15 164//16 108//17
f 108//17 175//18 167//15
s 0
f 109//19 269//19 110//19
f 269//19 109//19 204//19
f 201//20 203//20 205//20
f 205//20 200//20 201//20
f 111//2 259//2 267//2
f 267//2 265//2 111//2
f 207//5 262//5 112//5
f 112//5 113//5 207//5
f 114//5 115//5 253//5
f 160//5 253//5 115//5
f 156//5 260//5 116//5
f 256//5 116//5 260//5
s 1
f 175//18 108//17 117//21
f 117//21 250//22 175//18
f 149//23 157//1 118//24
f 155//1 118//24 157//1
f 119//25 120//26 244//27
f 176//28 244//27 120//26
f 270//29 149//23 268//29
f 118//24 268//29 149//23
f 250//22 117//21 121//2
f 121//2 251//2 250//22
f 120//26 122//30 176//28
f 249//30 176//28 122//30
f 123//31 166//13 173//31
f 107//14 166//13 123//31
f 124//32 125//33 245//32
f 162//34 245//32 125//33
f 106//11 126//35 242//11
f 240//35 242//11 126//35
s 0
f 247//9 172//9 174//9
f 198//9 127//9 257//9
f 127//9 198//9 128//9
f 172//9 247//9 129//9
f 227//36 130//36 131//36
f 130//36 227//36 231//36
s 1
f 208//37 206//37 235//38
f 132//39 133//40 206//37
s 0
f 263//1 255//1 261//1
f 255//1 263//1 258//1
s 1
f 125//33 134//1 162//34
f 243//1 162//34 134//1
s 0
f 215//41 228//41 226//41
f 226//41 135//41 215//41
s 1
f 136//42 190//43 137//44
f 158//45 137//44 190//43
f 229//46 138//46 230//47
f 230//47 232//47 229//46
f 138//46 229//46 136//42
f 190//43 136//42 229//46
s 0
f 254//1 134//1 252//1
s 1
f 134//1 254//1 243//1
f 236//48 214//49 233//48
f 214//49 236//48 216//49
f 122//30 124//50 249//30
s 0
f 245//30 249//50 124//50
s 1
f 238//51 139//51 164//16
f 164//16 167//15 238//51
f 140//52 217//53 141//54
f 211//55 141//54 217//53
f 137//44 158//45 140//52
f 217//53 140//52 158//45
s 0
f 142//56 221//56 143//56
f 224//56 143//56 221//56
s 1
f 141//54 211//55 144//57
f 219//58 144//57 211//55
f 144//57 219//58 145//59
f 218//60 145//59 219//58
s 0
f 237//61 239//61 220//61
f 222//61 220//61 239//61
s 1
f 145//59 218//60 132//39
f 133//40 132//39 218//60
f 233//48 119//25 236//48
f 244//27 236//48 119//25
f 225//62 146//63 223//62
f 146//63 225//62 154//64
f 154//64 147//65 146//63
f 147//65 154//64 187//66
f 187//66 148//67 147//65
f 148//67 187//66 241//68
f 241//68 126//35 148//67
f 126//35 241//68 240//35
s 0
f 246//2 248//2 159//2
f 161//2 159//2 248//2
s 1
f 251//2 121//2 197//2
f 197//2 199//2 251//2
f 107//14 105//12 242//11
f 105//12 107//14 123//31
f 133//40 235//38 206//37
f 235//38 133//40 218//60
o Object_251
v 0.083631 0.003996 -0.065289
v 0.085031 0.003996 -0.065289
v 0.083721 0.003996 -0.066823
v 0.084177 0.003996 -0.066933
v 0.081313 0.003996 -0.069327
v 0.083687 0.003996 -0.067591
v 0.083681 0.003996 -0.067681
v 0.081359 0.003996 -0.071845
v 0.079967 0.003996 -0.071845
v 0.081261 0.003996 -0.070329
v 0.083667 0.003996 -0.068281
v 0.085031 0.003996 -0.071845
v 0.083667 0.003996 -0.071845
v 0.079967 0.003996 -0.065289
v 0.080801 0.003996 -0.070217
v 0.081257 0.003996 -0.070227
v 0.081323 0.003996 -0.068819
v 0.083677 0.003996 -0.067803
v 0.081323 0.003996 -0.068981
v 0.081317 0.003996 -0.069159
v 0.081323 0.003996 -0.065289
v 0.083671 0.003996 -0.068043
v 0.083673 0.003996 -0.067961
v 0.083675 0.003996 -0.067867
v 0.083669 0.003996 -0.068123
v 0.083677 0.003996 -0.067773
v 0.081275 0.003996 -0.070119
v 0.083667 0.003996 -0.068205
v 0.081287 0.003996 -0.069909
v 0.081297 0.003996 -0.069727
v 0.081303 0.003996 -0.069539
v 0.081313 0.003996 -0.069345
v 0.083723 0.003996 -0.066923
v 0.083711 0.003996 -0.067031
v 0.083703 0.003996 -0.067231
v 0.083697 0.003996 -0.067321
v 0.083691 0.003996 -0.067501
v 0.080521 0.001002 -0.070889
v 0.081939 0.001002 -0.070633
v 0.082885 0.001002 -0.065289
v 0.084233 0.001002 -0.065355
v 0.080521 0.001002 -0.071845
v 0.084953 0.001002 -0.071845
v 0.084953 0.001002 -0.070565
v 0.081313 0.003996 -0.069327
v 0.083677 0.003996 -0.067803
vn -0.0000 1.0000 -0.0000
vn -0.0000 -1.0000 -0.0000
s 0
usemtl material_0
f 271//69 272//69 273//69
f 273//69 272//69 274//69
f 275//69 276//69 277//69
f 273//69 275//69 271//69
f 278//69 279//69 280//69
f 281//69 282//69 283//69
f 284//69 285//69 279//69
f 280//69 285//69 286//69
f 284//69 287//69 285//69
f 280//69 279//69 285//69
f 280//69 288//69 278//69
f 285//69 287//69 289//69
f 285//69 289//69 290//69
f 285//69 290//69 315//69
f 287//69 284//69 291//69
f 274//69 292//69 293//69
f 274//69 293//69 294//69
f 282//69 295//69 274//69
f 275//69 277//69 296//69
f 288//69 280//69 297//69
f 282//69 298//69 295//69
f 288//69 297//69 299//69
f 288//69 299//69 300//69
f 288//69 300//69 301//69
s 1
f 288//69 301//69 302//69
s 0
f 274//69 294//69 316//69
f 282//69 274//69 272//69
f 274//69 295//69 292//69
f 282//69 281//69 298//69
f 275//69 296//69 288//69
f 288//69 302//69 275//69
f 273//69 274//69 303//69
f 275//69 273//69 304//69
f 275//69 304//69 305//69
f 275//69 305//69 306//69
f 275//69 307//69 276//69
f 275//69 306//69 307//69
f 308//70 309//70 310//70
f 311//70 310//70 309//70
f 308//70 312//70 309//70
f 313//70 309//70 312//70
f 313//70 314//70 309//70
